<?xml version="1.0" encoding="UTF-8" standalone="no"?>
<!DOCTYPE svg PUBLIC "-//W3C//DTD SVG 20010904//EN"
              "http://www.w3.org/TR/2001/REC-SVG-20010904/DTD/svg10.dtd">

<svg xmlns="http://www.w3.org/2000/svg"
     width="33.8624mm" height="33.8624mm"
     viewBox="0 0 96 96">
  <path id="Selection"
        fill="none" stroke="white" stroke-width="2"
        d="M 6.00,54.00
           C 6.00,49.74 5.59,34.00 6.56,31.00
             7.35,28.56 9.33,26.05 10.87,24.00
             15.45,17.96 15.68,18.01 23.00,18.00
             23.00,18.00 73.00,18.00 73.00,18.00
             74.85,18.00 78.04,17.86 79.70,18.57
             82.65,19.83 88.45,27.94 89.44,31.00
             90.11,33.06 90.00,35.82 90.00,38.00
             90.00,38.00 90.00,54.00 90.00,54.00
             90.00,54.00 75.00,54.00 75.00,54.00
             75.00,54.00 75.00,78.00 75.00,78.00
             75.00,78.00 69.00,78.00 69.00,78.00
             69.00,78.00 69.00,54.00 69.00,54.00
             69.00,54.00 57.00,54.00 57.00,54.00
             57.00,54.00 57.00,78.00 57.00,78.00
             57.00,78.00 39.00,78.00 39.00,78.00
             39.00,78.00 39.00,54.00 39.00,54.00
             39.00,54.00 27.00,54.00 27.00,54.00
             27.00,54.00 27.00,78.00 27.00,78.00
             27.00,78.00 21.00,78.00 21.00,78.00
             21.00,78.00 21.00,54.00 21.00,54.00
             21.00,54.00 6.00,54.00 6.00,54.00 Z
           M 80.00,30.00
           C 76.95,24.97 75.92,24.11 70.00,24.00
             70.00,24.00 33.00,24.00 33.00,24.00
             24.55,24.00 20.73,22.18 16.00,30.00
             16.00,30.00 80.00,30.00 80.00,30.00 Z
           M 84.00,36.00
           C 84.00,36.00 12.00,36.00 12.00,36.00
             12.00,36.00 12.00,48.00 12.00,48.00
             12.00,48.00 84.00,48.00 84.00,48.00
             84.00,48.00 84.00,36.00 84.00,36.00 Z
           M 51.00,54.00
           C 51.00,54.00 45.00,54.00 45.00,54.00
             45.00,54.00 45.00,72.00 45.00,72.00
             45.00,72.00 51.00,72.00 51.00,72.00
             51.00,72.00 51.00,54.00 51.00,54.00 Z" />
</svg>
